# written by convert_mb_to_amc()
:FULLY-SPECIFIED
:DEGREES
122
upperback 10.208244 3.157072 3.867570
rfoot -29.954885 0.741353
lradius 40.800873
lthumb -11.440332 -290.698151
rradius 28.221663
lwrist -14.602388
rhand -56.030506 284.180328
rhumerus 59.077007 -24.040949 -48.178333
lowerneck -0.910471 -9.709596 2.742287
lhand -38.415829 39.633686
ltibia 90.567734
head -3.546631 -6.942717 1.325701
rwrist 7.648935
lfingers 7.125020
rtoes -22.581636
lowerback 28.542633 2.140055 2.636600
rfingers 7.125020
lclavicle 0.000000 -0.000000
upperneck -11.788740 -12.983547 4.345758
rfemur -106.071960 -16.440012 35.782951
thorax -4.361714 1.330402 1.771464
rclavicle 0.000000 -0.000000
rtibia 101.527908
lfoot -15.245500 27.097700
lhumerus 68.287766 -15.375859 46.078270
rthumb -28.365370 -616.311768
root 13.176516 14.709929 -12.549364 786.386902 302.586426 383.485077
ltoes -2.682917
lfemur -107.601715 -5.036898 -23.710791
123
upperback 10.342217 3.478254 6.740624
rfoot -14.732465 -29.538122
lradius 36.410709
lthumb -14.034297 -296.381287
rradius 31.053905
lwrist -19.041704
rhand -56.047260 92.014320
rhumerus 56.817707 -16.958935 -56.287041
lowerneck -0.817027 -8.793621 3.517905
lhand -41.106571 34.112427
ltibia 96.632874
head -2.832429 -6.180959 1.431713
rwrist 7.604066
lfingers 7.125020
rtoes 9.879327
lowerback 22.735750 1.767095 7.255440
rfingers 7.125020
lclavicle 0.000000 0.000000
upperneck -9.713643 -11.539104 5.500611
rfemur -75.180733 -33.564537 -8.015538
thorax -1.275617 1.577436 2.349655
rclavicle 0.000000 0.000000
rtibia 68.498657
lfoot -15.245500 27.097700
lhumerus 65.856186 -11.200814 47.236130
rthumb -28.381401 -600.117065
root 11.147609 14.479154 -14.285328 795.110962 319.052307 376.822784
ltoes -5.464812
lfemur -116.710251 -7.980888 -38.363926
124
upperback 9.322401 5.286777 8.619408
rfoot -30.655499 -28.351072
lradius 28.476252
lthumb -10.574401 -310.196777
rradius 29.998829
lwrist -34.042950
rhand -56.635872 99.356491
rhumerus 50.451820 -17.238848 -65.110710
lowerneck 0.676487 -10.113914 2.007454
lhand -37.518047 20.089869
ltibia 100.385948
head -1.638512 -6.811822 2.121355
rwrist 5.643930
lfingers 7.125020
rtoes -7.554612
lowerback 23.316780 2.859206 7.296015
rfingers 7.125020
lclavicle 0.000000 -0.000000
upperneck -6.039627 -13.139013 7.212529
rfemur -62.238613 -41.077045 -16.225178
thorax -2.856601 2.413116 3.890000
rclavicle 0.000000 -0.000000
rtibia 61.316391
lfoot -15.245500 27.097700
lhumerus 71.284096 -11.308015 55.250641
rthumb -28.943720 -592.870239
root 10.226686 13.605681 -17.068867 787.925232 337.180389 376.159851
ltoes -18.440683
lfemur -119.435852 2.732335 -28.288897
125
upperback 8.745010 6.811186 9.190725
rfoot -34.872070 -20.206753
lradius 22.498495
lthumb -4.187809 -306.286835
rradius 29.947638
lwrist -38.951935
rhand -57.447834 96.191353
rhumerus 53.699562 -18.550993 -64.103531
lowerneck 1.756311 -9.766855 3.710063
lhand -30.901304 23.774954
ltibia 94.677696
head -2.373434 -6.603510 0.750992
rwrist 0.738198
lfingers 7.125020
rtoes -17.848318
lowerback 23.434708 4.513804 3.464325
rfingers 7.125020
lclavicle -0.000000 -0.000000
upperneck -6.498030 -12.808071 3.241650
rfemur -74.281921 -48.792534 -7.838091
thorax -4.133580 3.124678 6.239391
rclavicle -0.000000 -0.000000
rtibia 72.600876
lfoot -15.245500 27.097700
lhumerus 79.711418 -12.657420 68.884399
rthumb -29.719015 -596.170532
root 10.021194 13.387088 -19.546301 786.083740 342.971924 377.253632
ltoes -17.041187
lfemur -124.638397 3.647063 -25.506859
126
upperback 8.037310 7.238360 10.171200
rfoot -33.304600 -18.451300
lradius 22.811001
lthumb -2.778030 -301.302002
rradius 27.289200
lwrist -26.938700
rhand -55.104099 -74.139099
rhumerus 58.915199 -17.501301 -56.244598
lowerneck 2.120270 -9.482710 5.589880
lhand -29.441401 28.736700
ltibia 85.272102
head -3.476560 -6.551340 -1.136260
rwrist -3.510140
lfingers 7.125020
rtoes -19.765200
lowerback 24.247299 4.807340 2.449340
rfingers 7.125020
lclavicle 0.000000 -0.000000
upperneck -7.868750 -12.849600 -2.180770
rfemur -82.685997 -50.847599 -4.651120
thorax -5.621890 3.347830 7.742600
rclavicle 0.000000 -0.000000
rtibia 76.042801
lfoot -15.245500 27.097700
lhumerus 80.262398 -19.143600 75.406898
rthumb -27.479700 -617.846008
root 10.290895 13.570983 -21.409653 785.125000 345.627991 378.177002
ltoes -12.055000
lfemur -126.640999 1.716770 -24.216999
127
upperback 7.475391 2.277622 8.790621
rfoot -31.429380 -20.216940
lradius 23.660675
lthumb 10.907235 -314.021271
rradius 26.906767
lwrist -19.203726
rhand -29.587578 -30.723484
rhumerus 56.800488 -16.531387 -56.483479
lowerneck 0.943938 -5.195475 3.830920
lhand -15.266854 16.580687
ltibia 71.682648
head -2.891232 -3.677502 -2.292408
rwrist -12.166348
lfingers 7.125020
rtoes -17.049503
lowerback 23.736691 0.691166 3.306138
rfingers 7.125020
lclavicle 0.000000 0.000000
upperneck -7.233406 -7.387612 -5.679986
rfemur -84.264496 -49.396210 3.603840
thorax -5.220337 1.043653 7.145493
rclavicle 0.000000 0.000000
rtibia 75.612190
lfoot -15.245500 27.097700
lhumerus 74.592926 -18.483372 69.648117
rthumb -2.919131 -780.686096
root 10.388782 14.182767 -22.931948 784.300476 355.907013 376.326996
ltoes -9.602239
lfemur -124.765099 0.775292 -18.421610
128
upperback 5.901546 -4.250185 2.411734
rfoot -28.760393 -24.323528
lradius 18.394598
lthumb 12.081537 -316.455383
rradius 23.608208
lwrist -24.892044
rhand -15.837278 -24.315615
rhumerus 22.547037 4.882626 -56.216793
lowerneck -4.268278 2.627212 -0.922361
lhand -14.049356 13.913514
ltibia 66.356613
head -1.290298 1.798356 -1.499885
rwrist 3.497370
lfingers 7.125020
rtoes -19.167976
lowerback 13.774547 -3.891506 5.372387
rfingers 7.125020
lclavicle -0.000000 0.000000
upperneck -6.721477 3.362188 -5.330594
rfemur -72.440834 -37.132145 18.615517
thorax -1.676532 -2.017586 0.143792
rclavicle -0.000000 0.000000
rtibia 60.342514
lfoot -15.245500 27.097700
lhumerus 53.928753 -8.654885 62.476700
rthumb 10.357088 -774.040344
root 10.772115 15.379050 -23.010725 783.589600 370.820190 363.466705
ltoes 7.247605
lfemur -122.799904 6.950234 -26.394962
129
upperback 3.686340 -3.872643 -1.572929
rfoot 10.305264 -22.241671
lradius 19.139170
lthumb 11.827236 -314.434082
rradius 27.006681
lwrist -22.438761
rhand -7.648964 -18.446941
rhumerus -38.056210 11.191014 -78.995972
lowerneck -4.427308 4.432518 5.491483
lhand -14.313029 15.919588
ltibia 65.838310
head -0.202725 2.765019 -4.616436
rwrist 11.783763
lfingers 7.125020
rtoes -2.532470
lowerback 11.434468 -3.202653 3.023157
rfingers 7.125020
lclavicle 0.000000 -0.000000
upperneck -4.696635 5.529371 -11.251444
rfemur -33.798321 -12.506094 7.817194
thorax -2.853992 -1.885841 -2.800488
rclavicle 0.000000 -0.000000
rtibia 51.555302
lfoot -15.245500 27.097700
lhumerus 28.930984 -21.914694 52.271370
rthumb 18.246555 -767.610779
root 12.849174 16.796610 -20.577988 768.678406 391.221039 358.681549
ltoes 13.179989
lfemur -96.926132 1.526090 -16.583090
130
upperback 3.779944 -6.227006 -3.113658
rfoot -27.430500 -29.309324
lradius 17.371058
lthumb 14.467268 -314.959320
rradius 29.520897
lwrist -25.053099
rhand -2.215169 -13.706786
rhumerus -50.691471 6.179740 -94.371544
lowerneck -4.810740 5.121477 3.603721
lhand -11.574218 15.564986
ltibia 63.578583
head 0.713303 3.324235 -4.445806
rwrist 17.412249
lfingers 7.125020
rtoes -1.252223
lowerback 9.076328 -4.844286 1.492558
rfingers 7.125020
lclavicle 0.000000 0.000000
upperneck -2.309076 6.737895 -12.055765
rfemur -69.691811 -6.898235 16.386042
thorax -1.648977 -3.021521 -3.391555
rclavicle 0.000000 0.000000
rtibia 87.140266
lfoot -15.245500 27.097700
lhumerus 11.717063 -32.382397 45.589504
rthumb 23.466991 -762.295593
root 14.687056 17.359146 -17.546139 766.828186 421.160187 368.821045
ltoes 8.770463
lfemur -76.059326 -12.860741 -11.648738
131
upperback 2.898110 -4.795020 -2.574140
rfoot -17.909401 -15.521700
lradius 20.143200
lthumb 12.961500 -318.031006
rradius 40.849899
lwrist -23.246700
rhand -2.194750 -6.567550
rhumerus -48.690102 9.107420 -99.610901
lowerneck -3.632670 6.024240 5.355300
lhand -13.136600 12.391400
ltibia 46.856899
head 1.325570 3.984480 -4.550990
rwrist 21.795099
lfingers 7.125020
rtoes -7.628630
lowerback 6.073670 -3.825180 3.955560
rfingers 7.125020
lclavicle -0.000000 0.000000
upperneck -0.164079 8.137880 -13.038900
rfemur -61.927898 18.634399 -21.817900
thorax -0.949003 -2.314770 -4.531290
rclavicle -0.000000 0.000000
rtibia 45.404598
lfoot -15.245500 27.097700
lhumerus -2.832490 -33.380501 56.223701
rthumb 23.486601 -755.153992
root 17.371944 18.071875 -13.060189 919.922974 427.273010 529.950989
ltoes 4.562260
lfemur -62.154701 -32.747299 16.752501
132
upperback 1.935357 -3.890098 -1.704685
rfoot -33.451656 -40.509922
lradius 43.775429
lthumb 14.482698 -321.435425
rradius 26.212818
lwrist -12.396602
rhand -9.453193 -8.432988
rhumerus -56.054325 7.615946 -91.200958
lowerneck -1.680541 10.399938 10.484080
lhand -11.558196 9.089970
ltibia 37.868847
head 3.283245 7.022227 -5.813250
rwrist 23.798334
lfingers 7.125020
rtoes 8.562721
lowerback 3.402228 -3.049570 8.707098
rfingers 7.125020
lclavicle -0.000000 -0.000000
upperneck 3.572033 14.460963 -15.856185
rfemur -34.943546 -5.930691 14.349425
thorax -0.585763 -1.933709 -6.492232
rclavicle -0.000000 -0.000000
rtibia 44.354408
lfoot -15.245500 27.097700
lhumerus -7.209886 -44.874599 68.595436
rthumb 16.510035 -757.749451
root 20.778944 18.936272 -8.891275 920.235718 351.550446 533.073059
ltoes 9.340323
lfemur -53.989967 -25.746916 -0.184979
133
upperback 0.674490 -7.160703 0.169778
rfoot -31.516914 -24.928770
lradius 64.269295
lthumb 14.941040 -325.275482
rradius 14.807847
lwrist -3.399627
rhand -15.747677 -16.684660
rhumerus -70.346321 -7.616913 -58.660435
lowerneck -2.172579 12.676805 11.315084
lhand -11.082415 5.283304
ltibia 41.502701
head 5.004935 8.533938 -4.699532
rwrist 36.689655
lfingers 7.125020
rtoes 0.097984
lowerback 0.455645 -5.384158 9.527005
rfingers 7.125020
lclavicle -0.000000 -0.000000
upperneck 8.188482 17.653423 -13.251317
rfemur -31.721743 13.920442 15.853106
thorax -0.688823 -3.586338 -4.968384
rclavicle -0.000000 -0.000000
rtibia 45.054218
lfoot -15.245500 27.097700
lhumerus -7.086076 -56.991562 74.740547
rthumb 10.443509 -766.404480
root 23.097929 18.795258 -6.859338 1000.832825 275.032379 448.803711
ltoes 26.794699
lfemur -42.701836 -10.926221 -11.261390
134
upperback -0.335989 -6.970399 4.561739
rfoot -25.648212 -31.412895
lradius 77.498734
lthumb 14.793957 -327.994019
rradius 14.907910
lwrist 2.309754
rhand -16.865601 -23.694111
rhumerus -70.451935 1.674117 -31.940971
lowerneck -2.991267 11.940811 12.966548
lhand -11.235117 2.553909
ltibia 38.977505
head 6.134180 8.127883 -4.728315
rwrist 41.976177
lfingers 7.125020
rtoes -4.010987
lowerback -1.236941 -5.075777 14.657506
rfingers 7.125020
lclavicle 0.000000 0.000000
upperneck 11.479611 16.795513 -12.613718
rfemur -20.946821 -19.030058 21.167606
thorax -0.810992 -3.536550 -3.282028
rclavicle 0.000000 0.000000
rtibia 51.092789
lfoot -15.245500 27.097700
lhumerus -1.729737 -57.612995 69.321327
rthumb 9.365054 -773.466187
root 24.315529 17.953047 -4.689754 1090.668701 332.882996 351.385620
ltoes 37.335575
lfemur -50.580940 8.532657 -14.830370
135
upperback -1.020200 -4.861407 3.875823
rfoot 9.540514 -12.475786
lradius 81.455360
lthumb 11.647689 -326.457214
rradius 22.987593
lwrist 1.691861
rhand -21.107885 -27.231709
rhumerus -53.451279 8.880562 -32.410202
lowerneck -1.849409 12.637058 13.832331
lhand -14.499228 3.886335
ltibia 51.109085
head 6.413888 8.843846 -5.294293
rwrist 16.979269
lfingers 7.125020
rtoes -0.934704
lowerback 0.081635 -3.801445 15.199402
rfingers 7.125020
lclavicle 0.000000 -0.000000
upperneck 11.573489 18.228195 -14.385290
rfemur -14.889033 -10.764948 7.969518
thorax -2.056587 -2.570855 -4.231347
rclavicle 0.000000 -0.000000
rtibia 77.599297
lfoot -15.245500 27.097700
lhumerus -12.834739 -52.581448 73.700233
rthumb 5.270171 -777.145996
root 26.162407 17.148733 -1.530921 1082.760254 375.336212 350.899719
ltoes 31.665882
lfemur -46.698257 13.997075 -35.816235
